# xmcd
#
# Track frame offsets: 
#        183
#        11955
#        24933
#        35133
#        56658
#        71958
#        92733
#        110808
#        128508
#        148233
#        158508
#        173658
#        189183
#        201633
#        214833
#        228333
#
# Disc length: 3228 seconds
#
# Revision: 2
# Processed by: cddbd v1.4PL0 Copyright (c) Steve Scherf et al.
# Submitted via: ExactAudioCopy v0.90b4
#
DISCID=e90c9a10
DTITLE=Rex Allen - Voice Of The West
DYEAR=1900
DGENRE=Country
TTITLE0=Moonshine Steer
TTITLE1=Tyin' Knots In The Devil's Tail
TTITLE2=Windy Bill
TTITLE3=Little Joe The Wrangler
TTITLE4=When The Work's All Done This Fall
TTITLE5=Droop Ears
TTITLE6=Streets Of Laredo
TTITLE7=The Fireman Cowboy
TTITLE8=Braggin' Drunk From Wilcox
TTITLE9=Fiddle Medley
TTITLE10=Gone Girl
TTITLE11=Catfish John
TTITLE12=You Never Did Give Up On Me
TTITLE13=Just Call Me Lonesome
TTITLE14=Today I Started Loving You Again
TTITLE15=Reflex Reaction
EXTD=
EXTT0=
EXTT1=
EXTT2=
EXTT3=
EXTT4=
EXTT5=
EXTT6=
EXTT7=
EXTT8=
EXTT9=
EXTT10=
EXTT11=
EXTT12=
EXTT13=
EXTT14=
EXTT15=
PLAYORDER=
